<svg width="162" height="151" viewBox="0 0 162 151" fill="none" xmlns="http://www.w3.org/2000/svg">
<path d="M114.471 53.3841C92.2902 55.4243 76.486 27.1114 93.67 15.0791C101.081 9.8896 111.382 10.9496 119.208 16.0467C137.28 27.8194 133.516 51.6351 114.471 53.3841Z" fill="#FAC663" fill-opacity="0.15"/>
<path d="M95.9092 61.5048C114.917 48.1955 143.126 76.3698 128.77 94.3015C122.229 102.47 108.828 103.243 98.4269 94.7849C86.7658 85.307 85.2235 68.987 95.9092 61.5048Z" fill="#FAC663" fill-opacity="0.15"/>
<path d="M50.9376 7.68333C48.807 10.2587 44.4501 14.0075 39.5936 17.5088C34.463 21.214 28.7768 24.6439 24.5872 26.1341C13.2603 30.1424 4.81501 45.5467 16.9077 56.7906C28.0885 67.1843 37.0107 59.8988 47.3499 69.9287C57.7923 80.0701 70.463 79.6211 78.6232 73.2488C86.175 67.3501 89.8603 56.3761 84.3194 44.0383C78.4122 30.8934 88.295 25.0212 82.3512 10.9666C75.9242 -4.2603 58.5574 -1.53939 50.9376 7.68333Z" fill="#FAC663" fill-opacity="0.15"/>
<path d="M62.4554 84.9277C67.8319 81.1631 74.628 81.0411 80.528 84.0062C98.0701 92.8245 99.2677 121.198 82.0264 127.014C60.2248 134.379 43.4582 98.2297 62.4554 84.9277Z" fill="#FAC663" fill-opacity="0.15"/>
<path d="M38.6877 69.2696C55.2088 79.8744 53.4678 108.178 35.6474 112.134C14.1824 116.9 0.72289 82.0555 19.0221 69.2423C24.8947 65.1302 32.4076 65.2379 38.6877 69.2696Z" fill="#FAC663" fill-opacity="0.15"/>
</svg>
