<svg width="45" height="29" viewBox="0 0 45 29" fill="none" xmlns="http://www.w3.org/2000/svg">
<path d="M41.0915 9.12344L41.0915 9.12339C41.0538 8.86934 40.8741 8.64958 40.6225 8.54979L40.6852 8.9618L43.5522 27.8035L43.6136 28.2072C43.6284 28.1932 43.6426 28.1787 43.6563 28.1636L41.0915 9.12344ZM41.0915 9.12344L43.8333 27.5906M41.0915 9.12344L43.8333 27.5906M28.0311 3.27347C28.414 3.88301 29.1352 4.1934 29.8442 4.07799L29.8446 4.07793C30.1698 4.02474 30.7062 4.11928 31.2111 4.35879C31.7324 4.60608 32.0388 4.9196 32.1058 5.16062C32.2851 5.80593 32.8233 6.27888 33.4726 6.40593C33.4894 6.4227 33.5094 6.44333 33.5325 6.46815C33.6324 6.57518 33.7665 6.73262 33.9164 6.92324C34.0526 7.09637 34.1972 7.29105 34.337 7.49296H10.7497C10.8964 7.32839 11.0559 7.16444 11.2163 7.01147C11.4179 6.81924 11.6085 6.65615 11.758 6.54272C11.8335 6.48549 11.8915 6.44621 11.9308 6.42294C11.9324 6.42195 11.9341 6.421 11.9356 6.4201C12.622 6.31827 13.198 5.83289 13.3851 5.16083L13.3851 5.1606C13.4541 4.91265 13.7634 4.59984 14.2854 4.35505C14.7917 4.11764 15.328 4.02607 15.6466 4.07798C16.3561 4.19381 17.0771 3.88238 17.4594 3.27356L17.0361 3.00753L17.4595 3.27338C17.6202 3.01781 17.9488 2.78832 18.3614 2.67092C18.7729 2.55384 19.1844 2.5723 19.4756 2.70962M28.0311 3.27347L28.4545 3.00753L28.0312 3.27354C28.0311 3.27352 28.0311 3.2735 28.0311 3.27347ZM28.0311 3.27347C27.9681 3.17328 27.8405 3.05453 27.6326 2.94041C27.4291 2.8287 27.1765 2.73694 26.9042 2.67583C26.3357 2.54827 25.8023 2.57868 25.5245 2.70965L25.5245 2.70967C24.8737 3.01641 24.0938 2.91083 23.5538 2.43541M23.5538 2.43541C23.5539 2.43543 23.5539 2.43545 23.5539 2.43546L23.884 2.06052L23.5538 2.43541ZM23.5538 2.43541C23.3197 2.22929 22.9318 2.09894 22.4993 2.09918C22.0667 2.09941 21.6793 2.23026 21.4463 2.43544M21.4463 2.43544C21.4463 2.43543 21.4463 2.43542 21.4463 2.43541L21.1159 2.06016L21.4463 2.43544ZM21.4463 2.43544C20.9064 2.91081 20.1261 3.01646 19.4756 2.70962M19.4756 2.70962L19.6888 2.25739L19.4755 2.70961C19.4756 2.70962 19.4756 2.70962 19.4756 2.70962ZM43.8333 27.5906C43.8633 27.7936 43.8013 28.0025 43.6563 28.1636L43.8333 27.5906ZM43.0579 28.3787H43.3281C43.2438 28.4076 43.1536 28.4231 43.0608 28.4231H1.93901C1.84615 28.4231 1.75587 28.4076 1.67165 28.3787H1.94195H43.0579ZM1.3862 28.2073C1.37145 28.1934 1.35728 28.1789 1.34372 28.1638C1.19861 28.0027 1.13662 27.7938 1.16682 27.5911L1.16686 27.5908L3.90827 9.12343L3.90827 9.12339C3.94597 8.86934 4.1257 8.64958 4.37729 8.54979L4.31459 8.9618L1.44764 27.8035L1.3862 28.2073ZM4.80891 8.53702H4.4118C4.49498 8.50839 4.5853 8.49263 4.68041 8.49263H8.03836H8.43591L8.5255 8.1053C9.04861 5.84351 11.1193 5.15844 11.3639 5.0803L11.5607 5.01741L11.6557 4.83395C12.7757 2.67107 15.0963 2.56032 15.3563 2.55154L15.559 2.54469L15.6997 2.3986C17.0698 0.975389 18.9285 0.959184 19.9264 1.20594L20.121 1.25407L20.295 1.15439C22.0316 0.159304 23.8213 0.648248 24.7048 1.15441L24.8788 1.25408L25.0734 1.20593C26.071 0.959188 27.9294 0.975073 29.2998 2.3986L29.4405 2.54477L29.6433 2.55154C29.9059 2.56032 32.2231 2.67096 33.3439 4.83375L33.4388 5.01702L33.6354 5.07992C33.8764 5.15701 35.9493 5.83868 36.474 8.10539L36.5636 8.49263H36.9611H40.3194C40.4145 8.49263 40.5048 8.50839 40.588 8.53702H40.1909H4.80891ZM11.7606 5.43462L11.7605 5.43463C11.6117 5.45153 11.4809 5.52712 11.4208 5.56276C11.3371 5.61236 11.246 5.67597 11.1537 5.746C10.9677 5.88709 10.7483 6.07596 10.5262 6.28777C10.0909 6.70284 9.59495 7.2538 9.32249 7.75365L8.91951 8.49295H9.7615H35.238H36.0805L35.6769 7.75343C35.402 7.24975 35.0241 6.71402 34.7025 6.30505C34.5411 6.09983 34.3883 5.91944 34.2636 5.78584C34.2022 5.72006 34.1409 5.65834 34.0846 5.60909C34.0571 5.58505 34.0219 5.55613 33.9824 5.52989L33.9805 5.52865C33.9573 5.51319 33.862 5.44964 33.7302 5.43464L33.73 5.43462C33.4027 5.39749 33.1475 5.17451 33.0693 4.89291L33.0693 4.89281C32.8827 4.22141 32.237 3.73861 31.6397 3.45529C31.0261 3.1642 30.2776 2.99384 29.6833 3.09103C29.356 3.14418 29.0389 2.99789 28.8779 2.74159L28.8779 2.74153C28.6934 2.4479 28.4099 2.22629 28.1138 2.0638C27.8134 1.89887 27.4693 1.77776 27.1231 1.70009C26.4546 1.55008 25.6638 1.53843 25.0981 1.80511C24.8031 1.94416 24.4513 1.89323 24.2147 1.6849L24.2146 1.68485C23.7493 1.27524 23.1014 1.09885 22.4988 1.09918C21.8963 1.09951 21.2493 1.27654 20.7855 1.68488L20.7854 1.6849C20.5488 1.89326 20.1967 1.94411 19.9021 1.80517L19.9021 1.80516C19.3378 1.53904 18.6668 1.54435 18.0878 1.70909C17.51 1.87348 16.94 2.22071 16.6127 2.7415L16.6126 2.74168C16.4517 2.99795 16.1345 3.14442 15.8077 3.09103L15.8074 3.09099C15.2226 2.9957 14.476 3.16118 13.8609 3.44965C13.2615 3.73071 12.6108 4.21254 12.4217 4.8926C12.3432 5.1746 12.0881 5.3975 11.7606 5.43462ZM11.963 6.4056C11.963 6.40571 11.961 6.40671 11.9572 6.40827C11.9612 6.40626 11.963 6.40549 11.963 6.4056Z" fill="#FFFDFB" stroke="#FFFDFB" stroke-width="0.999999"/>
</svg>
