<svg width="21" height="18" viewBox="0 0 21 18" fill="none" xmlns="http://www.w3.org/2000/svg">
<path d="M16.8036 6.52453C13.8392 8.22469 14.344 13.1874 17.5596 13.1874C18.9464 13.1874 20.1467 12.1448 20.6811 10.8119C21.9152 7.73355 19.3488 5.06432 16.8036 6.52453Z" fill="#FF7236"/>
<path d="M13.759 7.13908C17.3158 7.13908 18.3808 1.09917 15.0016 0.106185C13.4621 -0.346079 11.7114 0.739105 11.1491 2.72284C10.5182 4.94628 11.7594 7.13908 13.759 7.13908Z" fill="#FF7236"/>
<path d="M12.8442 17.8903C12.3503 17.7537 11.4736 17.6658 10.556 17.6531C9.586 17.6389 8.57046 17.7084 7.91338 17.8903C6.13873 18.3847 3.72397 17.1886 4.25379 14.7045C4.74387 12.408 6.50471 12.5389 6.92111 10.3625C7.34066 8.16298 8.9711 7.10147 10.556 7.18444C12.0228 7.26144 13.4504 8.31922 13.8394 10.363C14.2534 12.5409 16.0106 12.4088 16.4999 14.7045C17.0317 17.1906 14.6118 18.3802 12.8442 17.8903Z" fill="#FF7236"/>
<path d="M7.49932 7.13932C8.5054 7.13932 9.36946 6.55499 9.8496 5.66068C11.2769 3.00141 8.93271 -0.680001 6.25644 0.10841C2.87148 1.10414 3.94446 7.13932 7.49932 7.13932Z" fill="#FF7236"/>
<path d="M5.8914 11.21C7.03346 8.41567 4.3264 5.00238 1.741 6.07635C-1.37325 7.36985 0.000280465 12.9488 3.42453 12.9488C4.52345 12.9488 5.45731 12.2723 5.8914 11.21Z" fill="#FF7236"/>
<path d="M12.8441 17.8903C12.3502 17.7537 11.4735 17.6658 10.5559 17.6531V7.18445C12.0227 7.26145 13.4503 8.31922 13.8393 10.363C14.2533 12.5409 16.0105 12.4088 16.4999 14.7045C17.0316 17.1906 14.6118 18.3802 12.8441 17.8903Z" fill="#FF7236"/>
</svg>
