<svg width="34" height="22" viewBox="0 0 34 22" fill="none" xmlns="http://www.w3.org/2000/svg">
<path d="M33.703 12.3539C33.5562 12.2055 30.7657 8.71857 24.6707 8.60728C24.0833 7.56861 21.8435 4.19293 18.2086 4.19293H18.0984L16.4829 1.07691C16.3727 0.891437 16.1892 0.780151 16.0056 0.780151H13.5088C13.2885 0.780151 13.105 0.891437 13.0315 1.07691L11.5629 4.15583H11.0855C10.9387 4.15583 7.4873 3.89616 3.88906 8.57018H1.09859C0.841573 8.57018 0.621273 8.75566 0.54784 9.01533C0.511123 9.2379 -0.590379 14.5796 1.24546 16.8796C1.83292 17.5844 2.60398 17.9553 3.55861 17.9553H4.32966C4.58668 19.8101 6.1655 21.2197 8.07477 21.2197C9.98404 21.2197 11.5629 19.8101 11.8199 17.9553H22.5412C22.7982 19.8101 24.377 21.2197 26.2863 21.2197C28.1955 21.2197 29.7743 19.8101 30.0314 17.9553H33.2624C33.5562 17.9553 33.8132 17.6957 33.8132 17.3989V12.6878C33.8132 12.5765 33.7765 12.4281 33.703 12.3539ZM18.2086 5.26869C20.7788 5.26869 22.5412 7.42023 23.3489 8.60728H15.3814V5.26869H18.2086ZM13.876 1.89301H15.6751L16.8501 4.19293H14.8306H12.7745L13.876 1.89301ZM11.0488 5.26869H14.3166V8.60728H5.32101C8.29507 5.15741 10.9754 5.26869 11.0488 5.26869ZM8.07477 20.1439C6.6061 20.1439 5.39445 18.9198 5.39445 17.436C5.39445 15.9522 6.6061 14.728 8.07477 14.728C9.54344 14.728 10.7551 15.9522 10.7551 17.436C10.7918 18.9198 9.58015 20.1439 8.07477 20.1439ZM26.2863 20.1439C24.8176 20.1439 23.6059 18.9198 23.6059 17.436C23.6059 15.9522 24.8176 14.728 26.2863 14.728C27.7549 14.728 28.9666 15.9522 28.9666 17.436C28.9666 18.9198 27.7916 20.1439 26.2863 20.1439ZM32.7117 16.8796H30.0314C29.7743 15.0248 28.1955 13.6152 26.2863 13.6152C24.377 13.6152 22.7982 15.0248 22.5412 16.8796H11.8199C11.5629 15.0248 9.98404 13.6152 8.07477 13.6152C6.1655 13.6152 4.58668 15.0248 4.32966 16.8796H3.55861C2.93443 16.8796 2.45711 16.657 2.08994 16.2118C0.951724 14.7651 1.24546 11.3894 1.53919 9.72014H4.14608H24.3403C29.4439 9.72014 32.1242 12.2797 32.7117 12.9103V16.8796Z" fill="#FFFDFB"/>
<path d="M13.876 1.89301H15.6751L16.8501 4.19293H14.8306H12.7745L13.876 1.89301Z" fill="#FFFDFB"/>
<path d="M8.07477 20.1439C6.6061 20.1439 5.39445 18.9198 5.39445 17.436C5.39445 15.9522 6.6061 14.728 8.07477 14.728C9.54344 14.728 10.7551 15.9522 10.7551 17.436C10.7918 18.9198 9.58015 20.1439 8.07477 20.1439Z" fill="#FFFDFB"/>
<path d="M26.2863 20.1439C24.8176 20.1439 23.6059 18.9198 23.6059 17.436C23.6059 15.9522 24.8176 14.728 26.2863 14.728C27.7549 14.728 28.9666 15.9522 28.9666 17.436C28.9666 18.9198 27.7916 20.1439 26.2863 20.1439Z" fill="#FFFDFB"/>
</svg>
