<svg width="43" height="27" viewBox="0 0 43 27" fill="none" xmlns="http://www.w3.org/2000/svg">
<path d="M42.3788 15.1925C42.1952 15.007 38.7071 10.6483 31.0884 10.5092C30.3541 9.21085 27.5544 4.99125 23.0107 4.99125H22.873L20.8536 1.09623C20.7159 0.864388 20.4865 0.725281 20.257 0.725281H17.1361C16.8607 0.725281 16.6312 0.864388 16.5394 1.09623L14.7036 4.94488H14.1069C13.9233 4.94488 9.60913 4.6203 5.11133 10.4628H1.62324C1.30197 10.4628 1.0266 10.6947 0.934804 11.0193C0.888908 11.2975 -0.487969 17.9746 1.80683 20.8495C2.54116 21.7305 3.50497 22.1942 4.69827 22.1942H5.66208C5.98335 24.5127 7.95688 26.2747 10.3435 26.2747C12.73 26.2747 14.7036 24.5127 15.0248 22.1942H28.4264C28.7477 24.5127 30.7212 26.2747 33.1078 26.2747C35.4944 26.2747 37.4679 24.5127 37.7892 22.1942H41.828C42.1952 22.1942 42.5165 21.8697 42.5165 21.4987V15.6098C42.5165 15.4707 42.4706 15.2852 42.3788 15.1925ZM23.0107 6.33596C26.2234 6.33596 28.4264 9.02538 29.4362 10.5092H19.4767V6.33596H23.0107ZM17.595 2.11636H19.8439L21.3126 4.99125H18.7883H16.2181L17.595 2.11636ZM14.061 6.33596H18.1458V10.5092H6.90127C10.6188 6.19685 13.9692 6.33596 14.061 6.33596ZM10.3435 24.93C8.50763 24.93 6.99306 23.3998 6.99306 21.5451C6.99306 19.6903 8.50763 18.1601 10.3435 18.1601C12.1793 18.1601 13.6939 19.6903 13.6939 21.5451C13.7398 23.3998 12.2252 24.93 10.3435 24.93ZM33.1078 24.93C31.272 24.93 29.7574 23.3998 29.7574 21.5451C29.7574 19.6903 31.272 18.1601 33.1078 18.1601C34.9437 18.1601 36.4582 19.6903 36.4582 21.5451C36.4582 23.3998 34.9896 24.93 33.1078 24.93ZM41.1396 20.8495H37.7892C37.4679 18.5311 35.4944 16.769 33.1078 16.769C30.7212 16.769 28.7477 18.5311 28.4264 20.8495H15.0248C14.7036 18.5311 12.73 16.769 10.3435 16.769C7.95688 16.769 5.98335 18.5311 5.66208 20.8495H4.69827C3.91804 20.8495 3.32139 20.5713 2.86243 20.0149C1.43966 18.2065 1.80683 13.9869 2.17399 11.9003H5.4326H30.6753C37.0549 11.9003 40.4053 15.0997 41.1396 15.888V20.8495Z" fill="#FFFDFB"/>
<path d="M17.595 2.11636H19.8439L21.3126 4.99125H18.7883H16.2181L17.595 2.11636Z" fill="#FFFDFB"/>
<path d="M10.3435 24.93C8.50763 24.93 6.99306 23.3998 6.99306 21.5451C6.99306 19.6903 8.50763 18.1601 10.3435 18.1601C12.1793 18.1601 13.6939 19.6903 13.6939 21.5451C13.7398 23.3998 12.2252 24.93 10.3435 24.93Z" fill="#FFFDFB"/>
<path d="M33.1078 24.93C31.272 24.93 29.7574 23.3998 29.7574 21.5451C29.7574 19.6903 31.272 18.1601 33.1078 18.1601C34.9437 18.1601 36.4582 19.6903 36.4582 21.5451C36.4582 23.3998 34.9896 24.93 33.1078 24.93Z" fill="#FFFDFB"/>
</svg>
