<svg width="22" height="38" viewBox="0 0 22 38" fill="none" xmlns="http://www.w3.org/2000/svg">
<path d="M20.6795 9.2015C20.9779 9.2015 21.2198 9.44339 21.2198 9.74177C21.2198 10.0402 20.9779 10.2821 20.6795 10.2821H15.8476C15.5492 10.2821 15.3073 10.0402 15.3073 9.74177C15.3073 9.44339 15.5492 9.2015 15.8476 9.2015H20.6795ZM18.7404 12.1803C18.7404 11.8819 18.4985 11.64 18.2001 11.64H15.8476C15.5492 11.64 15.3073 11.8819 15.3073 12.1803C15.3073 12.4787 15.5492 12.7206 15.8476 12.7206H18.2001C18.4985 12.7206 18.7404 12.4787 18.7404 12.1803ZM15.3073 14.6188C15.3073 14.9172 15.5492 15.1591 15.8476 15.1591H20.6795C20.9779 15.1591 21.2198 14.9172 21.2198 14.6188C21.2198 14.3204 20.9779 14.0785 20.6795 14.0785H15.8476C15.5492 14.0785 15.3073 14.3204 15.3073 14.6188ZM18.7404 17.0581C18.7404 16.7597 18.4985 16.5178 18.2001 16.5178H15.8476C15.5492 16.5178 15.3073 16.7597 15.3073 17.0581C15.3073 17.3565 15.5492 17.5984 15.8476 17.5984H18.2001C18.4985 17.5984 18.7404 17.3565 18.7404 17.0581ZM15.3073 19.4966C15.3073 19.795 15.5492 20.0369 15.8476 20.0369H20.6795C20.9779 20.0369 21.2198 19.795 21.2198 19.4966C21.2198 19.1982 20.9779 18.9563 20.6795 18.9563H15.8476C15.5492 18.9563 15.3073 19.1982 15.3073 19.4966ZM16.2289 29.3079C16.2289 33.6221 12.7638 37.1319 8.50456 37.1319C4.2453 37.1319 0.78022 33.6221 0.78022 29.3079C0.78022 26.5122 2.22973 23.9714 4.59471 22.5658V4.82841C4.59471 2.64465 6.34861 0.868134 8.50456 0.868134C10.6605 0.868134 12.4144 2.64465 12.4144 4.82841V22.5658C14.7794 23.9699 16.2289 26.5114 16.2289 29.3079ZM15.1573 29.3079C15.1573 26.9356 13.8558 24.3263 11.7601 23.2484L11.3428 23.0336V4.82918C11.3428 3.49698 9.81903 1.94946 8.50456 1.94946C7.19009 1.94946 5.66629 3.49698 5.66629 4.82918V23.0336L5.24899 23.2484C3.15331 24.3271 1.8518 26.9364 1.8518 29.3079C1.8518 32.7698 5.08678 36.0513 8.50456 36.0513C11.9223 36.0513 15.1573 32.7698 15.1573 29.3079ZM13.4321 29.3079C13.4321 32.0596 11.222 34.2982 8.50456 34.2982C5.78788 34.2982 3.57777 32.0596 3.57777 29.3079C3.57777 27.0523 5.53641 25.0718 7.69084 24.4914L7.97387 24.4149V15.4143C7.97387 15.121 8.21164 14.8832 8.50494 14.8832C8.79824 14.8832 9.03601 15.121 9.03601 15.4143V24.4142L9.31905 24.4914C11.4742 25.0718 13.4321 27.0531 13.4321 29.3079ZM9.18315 25.9738C9.06566 25.4452 8.56054 25.5699 8.02575 25.6936C6.15817 26.1217 4.85362 27.7761 4.85362 29.7172C4.85362 30.2666 4.85362 30.8555 5.54945 30.8555C5.9185 30.8555 6.00366 30.2426 6.00366 29.6932C6.00366 28.7064 6.60669 27.2339 8.02575 26.9036C8.55367 26.7808 9.30216 26.5085 9.18315 25.9738Z" fill="#FFFDFB"/>
</svg>
