<svg width="27" height="47" viewBox="0 0 27 47" fill="none" xmlns="http://www.w3.org/2000/svg">
<path d="M25.5994 11.2519C25.9724 11.2519 26.2747 11.5542 26.2747 11.9272C26.2747 12.3002 25.9724 12.6025 25.5994 12.6025H19.5595C19.1865 12.6025 18.8842 12.3002 18.8842 11.9272C18.8842 11.5542 19.1865 11.2519 19.5595 11.2519H25.5994ZM23.1755 14.9753C23.1755 14.6024 22.8731 14.3 22.5001 14.3H19.5595C19.1865 14.3 18.8842 14.6024 18.8842 14.9753C18.8842 15.3483 19.1865 15.6507 19.5595 15.6507H22.5001C22.8731 15.6507 23.1755 15.3483 23.1755 14.9753ZM18.8842 18.0235C18.8842 18.3965 19.1865 18.6988 19.5595 18.6988H25.5994C25.9724 18.6988 26.2747 18.3965 26.2747 18.0235C26.2747 17.6505 25.9724 17.3481 25.5994 17.3481H19.5595C19.1865 17.3481 18.8842 17.6505 18.8842 18.0235ZM23.1755 21.0726C23.1755 20.6996 22.8731 20.3973 22.5001 20.3973H19.5595C19.1865 20.3973 18.8842 20.6996 18.8842 21.0726C18.8842 21.4456 19.1865 21.7479 19.5595 21.7479H22.5001C22.8731 21.7479 23.1755 21.4456 23.1755 21.0726ZM18.8842 24.1207C18.8842 24.4937 19.1865 24.7961 19.5595 24.7961H25.5994C25.9724 24.7961 26.2747 24.4937 26.2747 24.1207C26.2747 23.7478 25.9724 23.4454 25.5994 23.4454H19.5595C19.1865 23.4454 18.8842 23.7478 18.8842 24.1207ZM20.0361 36.3849C20.0361 41.7776 15.7048 46.1648 10.3807 46.1648C5.05663 46.1648 0.725281 41.7776 0.725281 36.3849C0.725281 32.8902 2.53716 29.7142 5.49339 27.9572V5.78549C5.49339 3.05579 7.68577 0.835144 10.3807 0.835144C13.0756 0.835144 15.268 3.05579 15.268 5.78549V27.9572C18.2242 29.7123 20.0361 32.8892 20.0361 36.3849ZM18.6967 36.3849C18.6967 33.4195 17.0698 30.1579 14.4502 28.8105L13.9285 28.5419V5.78645C13.9285 4.1212 12.0238 2.1868 10.3807 2.1868C8.73761 2.1868 6.83287 4.1212 6.83287 5.78645V28.5419L6.31124 28.8105C3.69164 30.1589 2.06476 33.4205 2.06476 36.3849C2.06476 40.7122 6.10848 44.8141 10.3807 44.8141C14.6529 44.8141 18.6967 40.7122 18.6967 36.3849ZM16.5402 36.3849C16.5402 39.8245 13.7775 42.6228 10.3807 42.6228C6.98486 42.6228 4.22221 39.8245 4.22221 36.3849C4.22221 33.5654 6.67052 31.0897 9.36355 30.3643L9.71735 30.2687V19.0179C9.71735 18.6512 10.0146 18.354 10.3812 18.354C10.7478 18.354 11.045 18.6512 11.045 19.0179V30.2677L11.3988 30.3643C14.0928 31.0897 16.5402 33.5663 16.5402 36.3849ZM11.2289 32.2172C11.0821 31.5565 10.4507 31.7124 9.78219 31.8669C7.44772 32.402 5.81703 34.4701 5.81703 36.8965C5.81703 37.5832 5.81703 38.3193 6.68682 38.3193C7.14813 38.3193 7.25458 37.5532 7.25458 36.8664C7.25458 35.6329 8.00837 33.7924 9.78219 33.3795C10.4421 33.2259 11.3777 32.8856 11.2289 32.2172Z" fill="#FFFDFB"/>
</svg>
