<svg width="35" height="37" viewBox="0 0 35 37" fill="none" xmlns="http://www.w3.org/2000/svg">
<path d="M13.0282 12.1331C12.821 12.6219 12.7174 13.1385 12.7202 13.6686C12.7259 14.7338 13.1704 15.7441 13.972 16.5134C14.7738 17.283 15.8425 17.7246 16.9812 17.7569C17.8699 17.7816 18.7462 17.5537 19.4894 17.1083C20.1955 17.5314 21.0216 17.7588 21.8647 17.7588C21.9089 17.7588 21.9532 17.7582 21.9975 17.757C23.1247 17.725 24.1857 17.2908 24.9852 16.5344C25.7847 15.7781 26.2366 14.781 26.2578 13.7267C26.2711 13.0674 26.1222 12.4348 25.8152 11.8466C25.5342 11.3082 23.26 8.97611 22.4558 8.12119C22.2544 7.90701 22.7954 8.65577 22.5665 8.84406C22.3375 9.03235 21.5921 8.73336 21.7934 8.94747C22.5213 9.72142 24.5887 11.8514 24.8226 12.2995C25.0522 12.7394 25.1635 13.213 25.1536 13.7073C25.1204 15.3496 23.7194 16.675 21.964 16.7248C21.1941 16.7471 20.4356 16.5139 19.8305 16.0696C19.6302 15.9225 19.3485 15.9225 19.1482 16.0696C18.5431 16.514 17.7847 16.7466 17.0147 16.7248C15.2644 16.6752 13.8333 15.3018 13.8246 13.6635C13.8224 13.2661 13.9 12.8793 14.0549 12.5138C14.4131 11.6688 15.1878 10.7136 16.6452 9.31957C18.0143 8.00994 20.2274 7.84994 21.7934 8.94747C22.0374 9.11848 22.3836 9.07221 22.5665 8.84406C22.7494 8.61591 22.6999 8.29227 22.4558 8.12119C20.4482 6.714 17.6106 6.91882 15.8553 8.59767C14.2684 10.1156 13.4493 11.1399 13.0282 12.1331Z" fill="#FFFDFB"/>
<path d="M16.5747 6.94154C17.994 6.94154 19.1486 5.55955 19.1486 3.86094C19.1486 2.16233 17.994 0.780273 16.5747 0.780273C15.1555 0.780273 14.0008 2.1622 14.0008 3.86087C14.0008 5.55955 15.1555 6.94154 16.5747 6.94154ZM16.5747 1.81295C17.3712 1.81295 18.0441 2.75082 18.0441 3.86087C18.0441 4.97099 17.3712 5.9088 16.5747 5.9088C15.7783 5.9088 15.1053 4.97099 15.1053 3.86087C15.1053 2.75082 15.7783 1.81295 16.5747 1.81295Z" fill="#FFFDFB"/>
<path d="M16.5747 1.81295C17.3712 1.81295 18.0441 2.75082 18.0441 3.86087C18.0441 4.97099 17.3712 5.9088 16.5747 5.9088C15.7783 5.9088 15.1053 4.97099 15.1053 3.86087C15.1053 2.75082 15.7783 1.81295 16.5747 1.81295Z" fill="#FFFDFB"/>
<path d="M11.3012 10.6334C12.4465 10.6334 13.3437 9.57629 13.3437 8.22679C13.3437 6.8773 12.4465 5.82018 11.3012 5.82018C10.1558 5.82018 9.25868 6.8773 9.25868 8.22679C9.25868 9.57629 10.1558 10.6334 11.3012 10.6334ZM11.3012 6.85286C11.8097 6.85286 12.2392 7.48203 12.2392 8.22679C12.2392 8.97155 11.8097 9.60073 11.3012 9.60073C10.7927 9.60073 10.3632 8.97155 10.3632 8.22679C10.3632 7.48203 10.7927 6.85286 11.3012 6.85286Z" fill="#FFFDFB"/>
<path d="M11.3012 6.85286C11.8097 6.85286 12.2392 7.48203 12.2392 8.22679C12.2392 8.97155 11.8097 9.60073 11.3012 9.60073C10.7927 9.60073 10.3632 8.97155 10.3632 8.22679C10.3632 7.48203 10.7927 6.85286 11.3012 6.85286Z" fill="#FFFDFB"/>
<path d="M27.4674 10.6334C28.6127 10.6334 29.5099 9.57629 29.5099 8.22679C29.5099 6.8773 28.6127 5.82018 27.4674 5.82018C26.322 5.82018 25.4249 6.8773 25.4249 8.22679C25.4249 9.57629 26.322 10.6334 27.4674 10.6334ZM27.4674 6.85286C27.9759 6.85286 28.4054 7.48203 28.4054 8.22679C28.4054 8.97155 27.9759 9.60073 27.4674 9.60073C26.9589 9.60073 26.5294 8.97155 26.5294 8.22679C26.5294 7.48203 26.9589 6.85286 27.4674 6.85286Z" fill="#FFFDFB"/>
<path d="M27.4674 6.85286C27.9759 6.85286 28.4054 7.48203 28.4054 8.22679C28.4054 8.97155 27.9759 9.60073 27.4674 9.60073C26.9589 9.60073 26.5294 8.97155 26.5294 8.22679C26.5294 7.48203 26.9589 6.85286 27.4674 6.85286Z" fill="#FFFDFB"/>
<path d="M23.0375 6.94154C24.4567 6.94154 25.6114 5.55955 25.6114 3.86094C25.6114 2.16233 24.4567 0.780273 23.0375 0.780273C21.6182 0.780273 20.4636 2.1622 20.4636 3.86087C20.4636 5.55955 21.6182 6.94154 23.0375 6.94154ZM23.0375 1.81295C23.834 1.81295 24.507 2.75082 24.507 3.86087C24.507 4.97099 23.834 5.9088 23.0375 5.9088C22.241 5.9088 21.5681 4.97099 21.5681 3.86087C21.568 2.75082 22.2409 1.81295 23.0375 1.81295Z" fill="#FFFDFB"/>
<path d="M23.0375 1.81295C23.834 1.81295 24.507 2.75082 24.507 3.86087C24.507 4.97099 23.834 5.9088 23.0375 5.9088C22.241 5.9088 21.5681 4.97099 21.5681 3.86087C21.568 2.75082 22.2409 1.81295 23.0375 1.81295Z" fill="#FFFDFB"/>
<path d="M33.5288 17.2131C32.969 16.6896 32.2246 16.4013 31.4329 16.4013C30.6411 16.4013 29.8967 16.6896 29.3368 17.2131L26.0866 20.2519C25.5439 19.6931 24.7612 19.3417 23.8922 19.3417H19.2367C18.9317 19.3417 19.8195 19.5729 19.8195 19.858C19.8195 20.1432 18.9317 20.3743 19.2367 20.3743H23.8922C24.9177 20.3743 25.752 21.1544 25.752 22.1132C25.752 23.072 24.9177 23.8521 23.8922 23.8521H19.2367C18.9317 23.8521 18.6845 24.0833 18.6845 24.3684C18.6845 24.6536 18.9317 24.8848 19.2367 24.8848H23.8922C25.5267 24.8848 26.8565 23.6415 26.8565 22.1132C26.8565 21.7784 26.7926 21.4572 26.6757 21.1598C26.6821 21.1544 26.6886 21.1494 26.6947 21.1437L30.1178 17.9432C30.8429 17.2652 32.0228 17.2652 32.7479 17.9432C33.473 18.6213 33.473 19.7244 32.7479 20.4024L25.8853 26.8187H19.5563C19.2513 26.8187 19.8195 27.0499 19.8195 27.335C19.8195 27.6202 19.5145 27.8514 19.8195 27.8514H26.1141C26.2605 27.8514 26.401 27.797 26.5046 27.7001L33.5288 21.1325C34.6845 20.0521 34.6845 18.2938 33.5288 17.2131Z" fill="#FFFDFB"/>
<path d="M19.9609 26.8188H17.4468C17.3015 26.8188 17.1621 26.8723 17.0588 26.9678L15.3223 28.5713L11.079 24.6039C10.9978 24.321 10.9567 24.0286 10.9567 23.7331C10.9567 21.8857 12.5641 20.3828 14.54 20.3828C14.5727 20.3828 14.6046 20.3796 14.6358 20.3745H19.4897C19.7947 20.3745 20.042 20.1434 20.042 19.8582C20.042 19.573 19.7947 19.3419 19.4897 19.3419H14.1032C14.0138 19.3419 13.9297 19.3622 13.855 19.3974C11.6413 19.7019 9.92708 21.4582 9.85595 23.5953L9.40959 23.178C9.19392 22.9763 8.84424 22.9763 8.62865 23.178L5.70274 25.9136C5.68389 25.9312 5.66732 25.9501 5.65186 25.9694L0.753499 31.0931C0.663226 31.1875 0.61323 31.3096 0.613009 31.4362L0.604394 35.6789C0.603805 35.9639 0.850251 36.1953 1.15509 36.1962L10.2557 36.2198H10.2572C10.4037 36.2198 10.5441 36.1655 10.6477 36.0686L16.5318 30.5671C16.6354 30.4703 16.6936 30.3389 16.6936 30.202C16.6936 30.065 16.6354 29.9337 16.5318 29.8369L16.0309 29.3686L17.6737 27.8516H19.9611C20.2661 27.8516 20.5134 27.6204 20.5134 27.3352C20.5131 27.05 20.2659 26.8188 19.9609 26.8188ZM10.0289 35.1865L1.70976 35.1648L1.71697 31.6346L6.11758 27.0317L12.4342 32.9377L10.0289 35.1865ZM13.2488 32.1759L6.9078 26.2471L9.01905 24.2731L15.3601 30.2019L13.2488 32.1759Z" fill="#FFFDFB"/>
</svg>
