<svg width="28" height="30" viewBox="0 0 28 30" fill="none" xmlns="http://www.w3.org/2000/svg">
<path d="M10.4226 9.9065C10.2568 10.2975 10.1739 10.7108 10.1761 11.1349C10.1807 11.987 10.5363 12.7953 11.1776 13.4108C11.8191 14.0264 12.674 14.3797 13.5849 14.4055C14.2959 14.4253 14.9969 14.2429 15.5915 13.8867C16.1564 14.2252 16.8172 14.4071 17.4918 14.4071C17.5271 14.4071 17.5626 14.4066 17.598 14.4056C18.4998 14.38 19.3486 14.0327 19.9882 13.4276C20.6277 12.8225 20.9893 12.0248 21.0062 11.1814C21.0169 10.6539 20.8977 10.1478 20.6522 9.67727C20.4274 9.24658 18.608 7.38088 17.9647 6.69695C17.8035 6.52561 18.2363 7.12462 18.0532 7.27525C17.87 7.42588 17.2736 7.18669 17.4347 7.35797C18.017 7.97714 19.6709 9.68113 19.8581 10.0396C20.0417 10.3915 20.1308 10.7704 20.1228 11.1659C20.0963 12.4796 18.9755 13.54 17.5712 13.5798C16.9553 13.5977 16.3485 13.4111 15.8644 13.0557C15.7042 12.938 15.4788 12.938 15.3186 13.0557C14.8345 13.4112 14.2278 13.5973 13.6117 13.5798C12.2115 13.5401 11.0667 12.4415 11.0596 11.1308C11.0579 10.8129 11.12 10.5034 11.2439 10.211C11.5305 9.53507 12.1502 8.77089 13.3161 7.65566C14.4114 6.60795 16.1819 6.47995 17.4347 7.35797C17.6299 7.49478 17.9069 7.45777 18.0532 7.27525C18.1995 7.09273 18.1599 6.83382 17.9647 6.69695C16.3585 5.5712 14.0884 5.73505 12.6843 7.07813C11.4147 8.29245 10.7595 9.11192 10.4226 9.9065Z" fill="#FFFDFB"/>
<path d="M13.2598 5.75323C14.3952 5.75323 15.3189 4.64764 15.3189 3.28875C15.3189 1.92987 14.3952 0.824219 13.2598 0.824219C12.1244 0.824219 11.2006 1.92976 11.2006 3.2887C11.2006 4.64764 12.1244 5.75323 13.2598 5.75323ZM13.2598 1.65036C13.897 1.65036 14.4353 2.40065 14.4353 3.2887C14.4353 4.1768 13.897 4.92704 13.2598 4.92704C12.6226 4.92704 12.0842 4.1768 12.0842 3.2887C12.0843 2.40065 12.6226 1.65036 13.2598 1.65036Z" fill="#FFFDFB"/>
<path d="M13.2598 1.65036C13.897 1.65036 14.4353 2.40065 14.4353 3.2887C14.4353 4.1768 13.897 4.92704 13.2598 4.92704C12.6226 4.92704 12.0842 4.1768 12.0842 3.2887C12.0843 2.40065 12.6226 1.65036 13.2598 1.65036Z" fill="#FFFDFB"/>
<path d="M9.04092 8.70672C9.9572 8.70672 10.675 7.86103 10.675 6.78143C10.675 5.70184 9.9572 4.85615 9.04092 4.85615C8.12464 4.85615 7.40694 5.70184 7.40694 6.78143C7.40694 7.86103 8.12464 8.70672 9.04092 8.70672ZM9.04092 5.68229C9.44772 5.68229 9.79138 6.18562 9.79138 6.78143C9.79138 7.37724 9.44772 7.88058 9.04092 7.88058C8.63418 7.88058 8.29052 7.37724 8.29052 6.78143C8.29052 6.18562 8.63412 5.68229 9.04092 5.68229Z" fill="#FFFDFB"/>
<path d="M9.04092 5.68229C9.44772 5.68229 9.79138 6.18562 9.79138 6.78143C9.79138 7.37724 9.44772 7.88058 9.04092 7.88058C8.63418 7.88058 8.29052 7.37724 8.29052 6.78143C8.29052 6.18562 8.63412 5.68229 9.04092 5.68229Z" fill="#FFFDFB"/>
<path d="M21.9739 8.70672C22.8902 8.70672 23.6079 7.86103 23.6079 6.78143C23.6079 5.70184 22.8902 4.85615 21.9739 4.85615C21.0576 4.85615 20.3399 5.70184 20.3399 6.78143C20.3399 7.86103 21.0576 8.70672 21.9739 8.70672ZM21.9739 5.68229C22.3807 5.68229 22.7243 6.18562 22.7243 6.78143C22.7243 7.37724 22.3807 7.88058 21.9739 7.88058C21.5671 7.88058 21.2235 7.37724 21.2235 6.78143C21.2235 6.18562 21.5671 5.68229 21.9739 5.68229Z" fill="#FFFDFB"/>
<path d="M21.9739 5.68229C22.3807 5.68229 22.7243 6.18562 22.7243 6.78143C22.7243 7.37724 22.3807 7.88058 21.9739 7.88058C21.5671 7.88058 21.2235 7.37724 21.2235 6.78143C21.2235 6.18562 21.5671 5.68229 21.9739 5.68229Z" fill="#FFFDFB"/>
<path d="M18.43 5.75323C19.5654 5.75323 20.4892 4.64764 20.4892 3.28875C20.4892 1.92987 19.5654 0.824219 18.43 0.824219C17.2946 0.824219 16.3709 1.92976 16.3709 3.2887C16.3709 4.64764 17.2946 5.75323 18.43 5.75323ZM18.43 1.65036C19.0672 1.65036 19.6056 2.40065 19.6056 3.2887C19.6056 4.1768 19.0672 4.92704 18.43 4.92704C17.7928 4.92704 17.2545 4.1768 17.2545 3.2887C17.2544 2.40065 17.7927 1.65036 18.43 1.65036Z" fill="#FFFDFB"/>
<path d="M18.43 1.65036C19.0672 1.65036 19.6056 2.40065 19.6056 3.2887C19.6056 4.1768 19.0672 4.92704 18.43 4.92704C17.7928 4.92704 17.2545 4.1768 17.2545 3.2887C17.2544 2.40065 17.7927 1.65036 18.43 1.65036Z" fill="#FFFDFB"/>
<path d="M26.823 13.9704C26.3752 13.5517 25.7797 13.321 25.1463 13.321C24.5129 13.321 23.9174 13.5517 23.4694 13.9704L20.8693 16.4015C20.4352 15.9545 19.8089 15.6733 19.1138 15.6733H15.3894C15.1454 15.6733 15.8556 15.8583 15.8556 16.0864C15.8556 16.3145 15.1454 16.4995 15.3894 16.4995H19.1138C19.9342 16.4995 20.6016 17.1235 20.6016 17.8906C20.6016 18.6576 19.9342 19.2817 19.1138 19.2817H15.3894C15.1454 19.2817 14.9476 19.4666 14.9476 19.6948C14.9476 19.9229 15.1454 20.1078 15.3894 20.1078H19.1138C20.4214 20.1078 21.4852 19.1132 21.4852 17.8906C21.4852 17.6227 21.4341 17.3658 21.3406 17.1278C21.3457 17.1235 21.3509 17.1195 21.3558 17.1149L24.0942 14.5546C24.6743 14.0122 25.6182 14.0122 26.1983 14.5546C26.7784 15.097 26.7784 15.9795 26.1983 16.5219L20.7082 21.655H15.645C15.401 21.655 15.8556 21.8399 15.8556 22.068C15.8556 22.2962 15.6116 22.4811 15.8556 22.4811H20.8913C21.0084 22.4811 21.1208 22.4376 21.2036 22.3601L26.823 17.106C27.7476 16.2417 27.7476 14.835 26.823 13.9704Z" fill="#FFFDFB"/>
<path d="M15.9687 21.6551H13.9574C13.8412 21.6551 13.7297 21.6978 13.647 21.7742L12.2578 23.0571L8.86318 19.8832C8.7982 19.6568 8.76533 19.4229 8.76533 19.1865C8.76533 17.7086 10.0513 16.5062 11.632 16.5062C11.6582 16.5062 11.6837 16.5037 11.7086 16.4996H15.5918C15.8358 16.4996 16.0336 16.3147 16.0336 16.0866C16.0336 15.8584 15.8358 15.6735 15.5918 15.6735H11.2825C11.211 15.6735 11.1438 15.6897 11.084 15.7179C9.31304 15.9615 7.94166 17.3665 7.88476 19.0762L7.52767 18.7424C7.35514 18.5811 7.07539 18.5811 6.90292 18.7424L4.56219 20.9309C4.54711 20.945 4.53386 20.9601 4.52149 20.9755L0.602797 25.0745C0.530579 25.15 0.490582 25.2477 0.490406 25.349L0.483514 28.7431C0.483042 28.9711 0.680199 29.1563 0.924068 29.1569L8.20455 29.1759H8.20579C8.32295 29.1759 8.43529 29.1324 8.51817 29.0549L13.2254 24.6537C13.3083 24.5762 13.3548 24.4711 13.3548 24.3616C13.3548 24.252 13.3083 24.147 13.2254 24.0695L12.8247 23.6949L14.139 22.4812H15.9689C16.2129 22.4812 16.4107 22.2963 16.4107 22.0682C16.4105 21.84 16.2127 21.6551 15.9687 21.6551ZM8.02312 28.3492L1.3678 28.3318L1.37358 25.5077L4.89406 21.8253L9.94739 26.5501L8.02312 28.3492ZM10.5991 25.9407L5.52624 21.1977L7.21523 19.6185L12.2881 24.3615L10.5991 25.9407Z" fill="#FFFDFB"/>
</svg>
