<svg width="32" height="26" viewBox="0 0 32 26" fill="none" xmlns="http://www.w3.org/2000/svg">
<path d="M31.131 10.4446C31.1187 10.1766 30.9609 9.6796 30.043 9.3634L5.57176 0.940471C4.31737 0.508419 2.92528 1.12272 2.46867 2.31019L1.80622 4.03296L0.315782 7.90934C-0.140762 9.09687 0.508314 10.4145 1.76295 10.8468L8.89503 13.3012C8.75951 14.0815 8.98558 14.8525 9.47765 15.4424L7.95834 19.3935C7.88843 19.5754 7.70395 19.6976 7.49931 19.6976H3.04808V18.3225C3.04808 17.5644 2.39647 16.9475 1.59547 16.9475H0.627064C0.359663 16.9475 0.14286 17.1527 0.14286 17.4058V24.7394C0.14286 24.9926 0.359663 25.1978 0.627064 25.1978H1.59547C2.39647 25.1978 3.04808 24.5809 3.04808 23.8227V22.4477H7.49931C8.92094 22.4477 10.2025 21.5981 10.6883 20.3338L12.1757 16.4656C13.0269 16.3525 13.8004 15.8821 14.2595 15.1474L22.5941 18.0156C22.8665 18.1095 23.1453 18.154 23.4197 18.154C24.252 18.1539 25.0428 17.7444 25.4857 17.0608L26.4421 17.3903C26.5501 17.4275 26.6621 17.4461 26.7738 17.4461C26.9132 17.4461 27.0521 17.4172 27.1821 17.3598C27.4164 17.2564 27.5941 17.0727 27.6825 16.8429L29.0078 13.396C29.169 12.9767 28.9851 12.5173 28.5945 12.2966L30.1467 11.6115C31.032 11.2207 31.1434 10.7127 31.131 10.4446ZM2.07968 23.8227C2.07968 24.0755 1.86245 24.2811 1.59547 24.2811H1.11127V17.8642H1.59547C1.86245 17.8642 2.07968 18.0698 2.07968 18.3225V23.8227ZM9.77834 20.0203C9.43111 20.9239 8.51523 21.531 7.49931 21.531H3.04808V20.6143H7.49931C8.10953 20.6143 8.65965 20.2497 8.86834 19.7071L10.2583 16.0922C10.4178 16.1829 10.5887 16.2608 10.7701 16.3233C10.8989 16.3677 11.0289 16.4028 11.159 16.4294L9.77834 20.0203ZM11.8306 15.5735C11.8194 15.5734 11.8082 15.5734 11.7971 15.574C11.5665 15.577 11.3312 15.5411 11.1013 15.4619C10.8321 15.3691 10.5974 15.2264 10.4051 15.0486C10.3875 15.0283 10.368 15.0095 10.3466 14.9923C9.986 14.6287 9.79293 14.1351 9.82948 13.6228L13.3253 14.8258C12.9716 15.2857 12.4179 15.5563 11.8306 15.5735ZM28.098 13.0824L26.7735 16.529L25.8628 16.2152L27.1191 12.9479L27.3763 12.8344L28.098 13.0824ZM29.7376 10.7807L27.1491 11.9232L27.1483 11.9236L26.5284 12.1972L26.5277 12.1975L25.801 12.5183C24.948 12.8948 23.4802 12.9554 22.5956 12.6506L4.03955 6.26575C3.78831 6.17941 4.42032 6.6153 4.32899 6.85319C4.23765 7.09113 3.45706 7.04065 3.70842 7.12717L22.2647 13.5122C22.752 13.6801 23.3528 13.7618 23.9658 13.7618C24.636 13.7618 25.3203 13.6636 25.8866 13.4733L24.7873 16.3323C24.5134 17.0448 23.6781 17.4135 22.9253 17.1541L2.09396 9.98532C1.34127 9.72601 0.951844 8.93541 1.22578 8.22291L2.05426 6.06821C2.33055 6.47029 2.74146 6.79406 3.25327 6.97041L3.70842 7.12717C3.95948 7.21379 4.23753 7.09107 4.32899 6.85319C4.42044 6.61536 4.29085 6.35232 4.03955 6.26575L3.58446 6.109C2.83189 5.84969 2.44241 5.05926 2.71616 4.34681L2.88188 3.91579L3.37868 2.6237C3.65267 1.9112 4.48787 1.5424 5.24068 1.80188L29.7119 10.2249C30.0228 10.332 30.1378 10.4436 30.1612 10.4847C30.1417 10.5277 30.0374 10.6483 29.7376 10.7807Z" fill="#FFFDFB"/>
<path d="M27.1491 11.9232L29.7376 10.7807C30.0374 10.6483 30.1417 10.5277 30.1612 10.4847C30.1378 10.4436 30.0228 10.332 29.7119 10.2249L5.24068 1.80188C4.48787 1.5424 3.65267 1.9112 3.37868 2.6237L2.88188 3.91579L2.71616 4.34681C2.44241 5.05926 2.83189 5.84969 3.58446 6.109L4.03955 6.26575L22.5956 12.6506C23.4802 12.9554 24.948 12.8948 25.801 12.5183L26.5277 12.1975L26.5284 12.1972L27.1483 11.9236L27.1491 11.9232Z" fill="#FFFDFB"/>
</svg>
