<svg width="40" height="31" viewBox="0 0 40 31" fill="none" xmlns="http://www.w3.org/2000/svg">
<path d="M39.1638 12.3058C39.1483 11.9707 38.9511 11.3495 37.8038 10.9543L7.21469 0.425604C5.6467 -0.114462 3.9066 0.653418 3.33584 2.13776L2.50778 4.29121L0.644725 9.13669C0.0740454 10.6211 0.88539 12.2682 2.45368 12.8085L11.3688 15.8765C11.1994 16.8519 11.482 17.8157 12.0971 18.553L10.1979 23.4919C10.1105 23.7192 9.87994 23.872 9.62414 23.872H4.0601V22.1532C4.0601 21.2055 3.24558 20.4344 2.24434 20.4344H1.03383C0.699577 20.4344 0.428574 20.6909 0.428574 21.0073V30.1743C0.428574 30.4907 0.699577 30.7473 1.03383 30.7473H2.24434C3.24558 30.7473 4.0601 29.9762 4.0601 29.0284V27.3096H9.62414C11.4012 27.3096 13.0031 26.2477 13.6104 24.6672L15.4696 19.8321C16.5336 19.6907 17.5005 19.1027 18.0744 18.1842L28.4926 21.7695C28.8331 21.8868 29.1816 21.9425 29.5246 21.9425C30.565 21.9424 31.5535 21.4305 32.1071 20.576L33.3026 20.9879C33.4377 21.0344 33.5776 21.0576 33.7172 21.0576C33.8915 21.0576 34.0651 21.0215 34.2277 20.9497C34.5205 20.8205 34.7427 20.5909 34.8531 20.3036L36.5098 15.995C36.7113 15.4709 36.4813 14.8966 35.9931 14.6208L37.9334 13.7644C39.04 13.276 39.1792 12.6409 39.1638 12.3058ZM2.84959 29.0284C2.84959 29.3443 2.57806 29.6014 2.24434 29.6014H1.63908V21.5803H2.24434C2.57806 21.5803 2.84959 21.8373 2.84959 22.1532V29.0284ZM12.4729 24.2754C12.0389 25.4049 10.894 26.1637 9.62414 26.1637H4.0601V25.0179H9.62414C10.3869 25.0179 11.0746 24.5622 11.3354 23.8839L13.0729 19.3653C13.2722 19.4786 13.4858 19.576 13.7126 19.6541C13.8736 19.7096 14.0361 19.7535 14.1988 19.7868L12.4729 24.2754ZM15.0382 18.7169C15.0242 18.7168 15.0103 18.7168 14.9964 18.7176C14.7081 18.7212 14.4141 18.6764 14.1266 18.5773C13.7902 18.4614 13.4968 18.283 13.2564 18.0608C13.2344 18.0354 13.21 18.0119 13.1833 17.9904C12.7325 17.5359 12.4912 16.9189 12.5369 16.2785L16.9066 17.7823C16.4645 18.3571 15.7724 18.6954 15.0382 18.7169ZM35.3724 15.6031L33.7168 19.9112L32.5785 19.519L34.1488 15.4349L34.4703 15.293L35.3724 15.6031ZM37.422 12.7259L34.1864 14.154L34.1854 14.1545L33.4105 14.4965L33.4097 14.4969L32.5012 14.8979C31.435 15.3685 29.6003 15.4442 28.4946 15.0633L5.29944 7.08221C4.98539 6.97428 5.7754 7.51914 5.66123 7.8165C5.54706 8.11393 4.57132 8.05083 4.88552 8.15897L28.0809 16.1402C28.6901 16.3501 29.441 16.4523 30.2072 16.4523C31.045 16.4523 31.9003 16.3295 32.6082 16.0917L31.2342 19.6654C30.8917 20.5561 29.8477 21.0168 28.9067 20.6926L2.86745 11.7317C1.92658 11.4075 1.4398 10.4193 1.78223 9.52865L2.81782 6.83527C3.16319 7.33788 3.67683 7.74259 4.31658 7.96303L4.88552 8.15897C5.19935 8.26726 5.54691 8.11385 5.66123 7.8165C5.77555 7.51922 5.61357 7.19042 5.29944 7.08221L4.73058 6.88626C3.78986 6.56212 3.30301 5.57409 3.6452 4.68353L3.85235 4.14476L4.47334 2.52965C4.81584 1.63901 5.85983 1.17801 6.80085 1.50237L37.3899 12.0311C37.7785 12.165 37.9222 12.3045 37.9514 12.3559C37.9271 12.4096 37.7968 12.5604 37.422 12.7259Z" fill="#FFFDFB"/>
<path d="M34.1864 14.154L37.422 12.7259C37.7968 12.5604 37.9271 12.4096 37.9514 12.3559C37.9222 12.3045 37.7785 12.165 37.3899 12.0311L6.80085 1.50237C5.85983 1.17801 4.81584 1.63901 4.47334 2.52965L3.85235 4.14476L3.6452 4.68353C3.30301 5.57409 3.78986 6.56212 4.73058 6.88626L5.29944 7.08221L28.4946 15.0633C29.6003 15.4442 31.435 15.3685 32.5012 14.8979L33.4097 14.4969L33.4105 14.4965L34.1854 14.1545L34.1864 14.154Z" fill="#FFFDFB"/>
</svg>
