<svg width="39" height="33" viewBox="0 0 39 33" fill="none" xmlns="http://www.w3.org/2000/svg">
<path d="M38.5197 4.37905C38.2465 4.16057 37.8638 4.10845 37.5207 4.21177C36.2444 4.59586 35.2841 5.3609 34.8222 5.78578C33.9695 5.54273 33.0477 5.54265 32.1949 5.78578C31.7276 5.35577 30.7495 4.57741 29.4501 4.19799C29.0628 4.08504 28.6428 4.19715 28.3789 4.49109C28.155 4.74042 28.0984 5.08471 28.207 5.39312C28.5311 6.31305 29.0557 7.76225 29.2396 8.26924C29.158 8.52201 29.1082 8.7871 29.0914 9.05999C29.0753 9.32172 29.0801 9.5725 29.1031 9.81264L28.7404 10.5263C28.5027 10.9938 28.0271 11.3183 27.475 11.3889C25.467 11.6458 21.5585 12.1644 17.9412 12.7526C13.2592 13.5138 11.4044 14.0151 10.6088 14.323C9.92995 13.3663 8.963 12.5871 7.83782 12.0989C6.12897 11.3576 3.27002 9.74537 3.32216 7.27653C3.36943 5.04247 4.28036 3.72276 5.03621 3.00899C5.35894 2.70426 5.5283 2.28481 5.50075 1.85817C5.47319 1.43077 5.25062 1.03214 4.88994 0.764445C4.19234 0.246738 3.19552 0.33704 2.62052 0.969767C0.706658 3.07572 0.248302 5.99209 0.145345 7.54307C0.0416457 9.10652 0.536713 10.553 1.61693 11.8425C2.39158 12.7672 3.44895 13.5912 4.75959 14.2917C6.03038 14.9708 6.94883 16.0547 7.34589 17.3438C7.38078 17.4572 7.39728 17.5746 7.39481 17.6925L7.38218 18.2883C7.376 18.5797 7.35108 18.8706 7.30744 19.1592L6.87194 22.0424C6.70109 23.1737 5.91852 24.1251 4.82328 24.6474C4.06224 25.0104 3.62731 25.783 3.74108 26.5698L4.53701 32.0738C4.57818 32.3587 4.84036 32.5714 5.1503 32.5714H8.42413C8.55645 32.5714 8.68853 32.5388 8.79636 32.4677C9.01638 32.3226 9.10539 32.0723 9.037 31.8438L9.00169 31.7258C8.74463 30.8672 8.04068 30.2097 7.14583 29.9569L6.99197 28.7794C6.94883 28.4492 7.15094 28.1336 7.48407 28.0107L10.6119 26.8568C10.6114 26.8875 10.6102 26.9179 10.6079 26.9475C10.6077 26.951 10.6074 26.9546 10.6072 26.9582C10.5763 27.5024 10.5532 27.9927 10.5385 28.4153C10.5182 28.9956 10.7572 29.5574 11.1998 29.968L13.8251 32.4032C13.9411 32.5109 14.0985 32.5714 14.2626 32.5714H18.0582C18.3847 32.5714 18.6601 32.3235 18.6777 32.0211C18.7389 30.9687 17.9403 30.0578 16.8158 29.8997L15.7303 29.7472L15.282 29.0937C15.0616 28.7724 15.0688 28.3618 15.3003 28.0473L18.2609 24.0258C19.1606 23.7681 22.9552 22.7505 25.1803 23.2325C25.2096 23.5043 25.2905 23.7701 25.4208 24.0185L29.7369 32.2485C29.8405 32.446 30.0565 32.5714 30.2933 32.5714H33.229C33.3591 32.5714 33.4889 32.5401 33.5958 32.4714C33.8149 32.3307 33.9078 32.0856 33.8465 31.8583L33.6472 31.1188C33.4548 30.4051 32.8804 29.8576 32.1562 29.6436L32.875 23.8428C32.905 23.6007 32.9825 23.3661 33.1043 23.1503C33.5513 22.3579 34.4294 20.8349 35.2817 19.549C35.9516 18.5384 36.3826 17.3766 36.5279 16.1889C36.7492 14.3818 37.1829 12.0738 37.2904 11.5121C37.7668 10.8795 37.9862 10.0421 37.9257 9.05992C37.9089 8.78702 37.8591 8.52193 37.7775 8.26916C37.9629 7.75796 38.4949 6.28848 38.8182 5.36985C38.9434 5.01454 38.8291 4.6267 38.5197 4.37905ZM7.02679 26.9439C6.17228 27.2592 5.65279 28.0708 5.7635 28.9176L5.97041 30.5011C6.00481 30.7641 6.22871 30.9711 6.51233 31.002C6.87186 31.0413 7.19401 31.1936 7.43391 31.4234H5.69157L4.96765 26.4171C4.92327 26.1106 5.09272 25.8096 5.38913 25.6682C6.76337 25.0125 7.73998 23.813 8.05256 22.4197C9.16603 23.6378 9.9599 24.7889 10.3461 25.7194L7.02679 26.9439ZM34.2277 18.9476C33.3563 20.262 32.4635 21.8104 32.0088 22.6164C31.8154 22.9593 31.6932 23.3279 31.6456 23.7117L31.3064 26.449L30.5592 23.0177C30.4884 22.6925 30.5692 22.3528 30.7811 22.0856L32.4857 19.935C33.428 18.7463 33.8568 17.2833 33.693 15.8155C33.6579 15.5002 33.3536 15.2712 33.0139 15.3037C32.674 15.3363 32.4269 15.6184 32.4621 15.9337C32.5941 17.117 32.2485 18.2965 31.4888 19.255L29.7841 21.4056C29.3662 21.9329 29.2065 22.6033 29.3462 23.245L30.8681 30.2329C30.9264 30.5006 31.1801 30.6932 31.4746 30.6932C31.9352 30.6932 32.3351 30.9827 32.4469 31.3974L32.454 31.4237H30.6804L26.5335 23.5163C26.428 23.3149 26.3864 23.091 26.4134 22.8684L27.0271 17.8172C27.0653 17.5022 26.8211 17.218 26.4815 17.1826C26.1414 17.1472 25.8357 17.3737 25.7974 17.6887L25.2642 22.0785C23.2446 21.7239 20.4691 22.2726 18.8927 22.6624C19.0205 21.8925 18.8117 21.0888 18.2714 20.4415L17.3673 19.3583C17.1581 19.1076 16.7696 19.0617 16.4993 19.2558C16.2291 19.4499 16.1796 19.8104 16.3888 20.061L17.2929 21.1443C17.7985 21.75 17.8253 22.5821 17.3595 23.2148L14.2784 27.4C13.7673 28.0941 13.7515 29.0008 14.238 29.71L14.8374 30.5838C14.9334 30.7237 15.09 30.8183 15.2667 30.8432L16.6304 31.0348C16.91 31.074 17.1434 31.2201 17.2873 31.4235H14.5188L12.0748 29.1564C11.8752 28.9713 11.7661 28.7148 11.7753 28.4527C11.7897 28.0389 11.8124 27.5581 11.8427 27.0235C11.9798 25.186 10.044 22.8045 8.87712 21.5476C8.67145 21.3261 8.56157 21.0442 8.56775 20.7537L8.63755 17.4511C8.63879 17.394 8.53566 17.0285 8.53566 17.0285C8.04984 15.451 6.9282 14.1259 5.37725 13.2971C1.88596 11.4313 1.27671 9.17654 1.38041 7.61355C1.59821 4.33 2.84359 2.50513 3.5666 1.70963C3.70577 1.55658 3.94749 1.53507 4.11677 1.66081C4.23689 1.74996 4.26147 1.86567 4.26535 1.92674C4.26923 1.98727 4.2599 2.1039 4.15332 2.20453C3.24015 3.06677 2.14005 4.64269 2.08478 7.25403C2.01886 10.3721 5.33237 12.2793 7.31338 13.1387C8.37504 13.5992 9.2637 14.3768 9.81578 15.3282C9.81578 15.3282 9.84465 15.3778 9.85026 15.3865C9.94134 15.5273 10.0937 15.6256 10.2678 15.6557C10.4445 15.6864 10.6274 15.644 10.768 15.5399C11.412 15.063 16.2182 13.9874 27.6442 12.5259C28.4622 12.4213 29.1783 12.0023 29.6335 11.3808C29.7481 11.5522 29.8792 11.7109 30.0286 11.8541C30.6552 12.4551 31.5535 12.7709 32.6313 12.7709C32.6715 12.7709 34.2538 12.7697 34.2538 12.7697C34.2574 12.7697 34.2609 12.7696 34.2645 12.7696C34.8463 12.782 35.3778 12.7038 35.8456 12.5406C35.6694 13.5303 35.441 14.8945 35.2984 16.0592C35.1734 17.0808 34.8031 18.0796 34.2277 18.9476ZM36.5442 8.06981C36.4937 8.19707 36.4928 8.33857 36.5451 8.46859C36.6272 8.67277 36.676 8.89378 36.6903 9.12535C36.7422 9.96776 36.5378 10.6354 36.0991 11.0561C35.6952 11.4435 35.0691 11.639 34.2891 11.622C34.2831 11.6218 34.2773 11.6218 34.2714 11.6218C34.2655 11.6218 32.7383 11.6205 32.7094 11.6224C31.9381 11.6354 31.3189 11.4406 30.918 11.0561C30.4793 10.6355 30.2749 9.96784 30.3268 9.1255C30.3411 8.89401 30.39 8.673 30.4721 8.46867C30.5238 8.3398 30.5234 8.19967 30.4741 8.07333C30.4737 8.07212 30.4732 8.07082 30.4727 8.06943C30.4138 7.90709 29.9065 6.50975 29.5297 5.45036C30.7379 5.93967 31.5392 6.81224 31.5472 6.82111C31.7213 7.01496 32.0116 7.08054 32.2625 6.98274C33.0545 6.67365 33.9628 6.67365 34.7546 6.98274C35.0043 7.08016 35.2944 7.01457 35.4689 6.82218C35.4778 6.81239 36.2791 5.93967 37.4874 5.45036C37.1102 6.51064 36.6024 7.90987 36.5442 8.06981Z" fill="#FFFDFB"/>
<path d="M30.4727 8.06943L30.4741 8.07333C30.8374 7.12502 30.8374 7.12502 31.5472 6.82111C31.5392 6.81224 30.7379 5.93967 29.5297 5.45036C29.9065 6.50975 30.4138 7.90709 30.4727 8.06943Z" fill="#FFFDFB"/>
<path d="M37.4874 5.45036C36.2791 5.93967 35.4778 6.81239 35.4689 6.82218C36.4944 7.12158 36.506 7.34315 36.5429 8.04543L36.5442 8.06981C36.6024 7.90987 37.1102 6.51064 37.4874 5.45036Z" fill="#FFFDFB"/>
<path d="M3.5666 1.70963C2.84359 2.50513 1.59821 4.33 1.38041 7.61355L2.08478 7.25403C2.14005 4.64269 3.24015 3.06677 4.15332 2.20453C4.2599 2.1039 4.26923 1.98727 4.26535 1.92674C4.26147 1.86567 4.23689 1.74996 4.11677 1.66081C3.94749 1.53507 3.70577 1.55658 3.5666 1.70963Z" fill="#FFFDFB"/>
</svg>
