<svg width="32" height="26" viewBox="0 0 32 26" fill="none" xmlns="http://www.w3.org/2000/svg">
<path d="M31.2157 3.30319C30.9972 3.12841 30.6911 3.08671 30.4166 3.16936C29.3955 3.47664 28.6272 4.08867 28.2578 4.42857C27.5756 4.23413 26.8382 4.23407 26.1559 4.42857C25.7821 4.08457 24.9996 3.46188 23.9601 3.15834C23.6502 3.06798 23.3142 3.15767 23.1031 3.39282C22.924 3.59228 22.8787 3.86772 22.9656 4.11444C23.2248 4.85039 23.6446 6.00975 23.7917 6.41534C23.7264 6.61756 23.6866 6.82963 23.6731 7.04795C23.6602 7.25732 23.6641 7.45795 23.6825 7.65006L23.3923 8.22095C23.2021 8.59502 22.8217 8.8546 22.38 8.91105C20.7736 9.11657 17.6468 9.53147 14.753 10.002C11.0074 10.611 9.52354 11.012 8.88706 11.2583C8.34396 10.493 7.5704 9.8696 6.67025 9.47906C5.30317 8.88601 3.01601 7.59625 3.05772 5.62117C3.09554 3.83393 3.82429 2.77816 4.42896 2.20714C4.68715 1.96336 4.82264 1.6278 4.8006 1.28649C4.77856 0.944565 4.60049 0.625661 4.31195 0.411507C3.75387 -0.00265831 2.95642 0.0695834 2.49641 0.575765C0.965326 2.26053 0.598641 4.59363 0.516276 5.83441C0.433317 7.08517 0.82937 8.24238 1.69355 9.27397C2.31327 10.0137 3.15916 10.6729 4.20767 11.2333C5.22431 11.7766 5.95906 12.6437 6.27671 13.675C6.30463 13.7657 6.31783 13.8597 6.31585 13.9539L6.30575 14.4306C6.3008 14.6637 6.28087 14.8964 6.24595 15.1273L5.89755 17.4339C5.76087 18.3389 5.13481 19.1 4.25862 19.5179C3.64979 19.8083 3.30185 20.4264 3.39286 21.0558L4.02961 25.459C4.06254 25.6869 4.27229 25.8571 4.52024 25.8571H7.1393C7.24516 25.8571 7.35083 25.831 7.43708 25.7741C7.6131 25.658 7.68431 25.4578 7.6296 25.275L7.60135 25.1806C7.3957 24.4937 6.83254 23.9677 6.11666 23.7655L5.99358 22.8235C5.95906 22.5593 6.12076 22.3068 6.38726 22.2085L8.8895 21.2854C8.8891 21.31 8.88818 21.3343 8.88633 21.3579C8.88614 21.3607 8.88594 21.3636 8.88574 21.3665C8.86106 21.8019 8.84258 22.1941 8.83076 22.5322C8.81453 22.9964 9.00579 23.4459 9.35987 23.7743L11.4601 25.7225C11.5528 25.8087 11.6788 25.857 11.81 25.857H14.8465C15.1078 25.857 15.3281 25.6587 15.3421 25.4168C15.3912 24.5749 14.7522 23.8462 13.8527 23.7197L12.9843 23.5977L12.6256 23.0749C12.4493 22.8179 12.455 22.4894 12.6402 22.2378L15.0087 19.0206C15.7285 18.8144 18.7642 18.0003 20.5443 18.386C20.5677 18.6034 20.6324 18.8161 20.7367 19.0148L24.1895 25.5988C24.2724 25.7568 24.4452 25.857 24.6346 25.857H26.9832C27.0872 25.857 27.1911 25.832 27.2767 25.7771C27.4519 25.6645 27.5263 25.4684 27.4772 25.2866L27.3178 24.695C27.1639 24.124 26.7043 23.6861 26.1249 23.5148L26.7 18.8742C26.724 18.6805 26.786 18.4929 26.8834 18.3202C27.241 17.6863 27.9435 16.4678 28.6254 15.4391C29.1613 14.6307 29.5061 13.7012 29.6224 12.7511C29.7994 11.3054 30.1463 9.45898 30.2323 9.00961C30.6135 8.50355 30.7889 7.83367 30.7406 7.04788C30.7271 6.82957 30.6873 6.6175 30.622 6.41528C30.7703 6.00632 31.1959 4.83074 31.4546 4.09583C31.5547 3.81158 31.4633 3.50131 31.2157 3.30319ZM6.02143 21.3551C5.33782 21.6073 4.92223 22.2566 5.0108 22.934L5.17632 24.2008C5.20385 24.4112 5.38296 24.5768 5.60987 24.6016C5.89748 24.633 6.15521 24.7548 6.34713 24.9387H4.95325L4.37412 20.9336C4.33861 20.6884 4.47417 20.4476 4.7113 20.3345C5.8107 19.81 6.59198 18.8503 6.84205 17.7357C7.73282 18.7102 8.36792 19.631 8.67686 20.3754L6.02143 21.3551ZM27.7821 14.958C27.085 16.0096 26.3708 17.2483 26.0071 17.8931C25.8523 18.1674 25.7545 18.4623 25.7165 18.7693L25.4452 20.9592L24.8473 18.2141C24.7907 17.954 24.8554 17.6822 25.0249 17.4684L26.3886 15.748C27.1424 14.797 27.4854 13.6266 27.3544 12.4524C27.3263 12.2001 27.0829 12.0169 26.8111 12.0429C26.5392 12.069 26.3415 12.2947 26.3697 12.5469C26.4753 13.4936 26.1988 14.4372 25.591 15.204L24.2273 16.9244C23.8929 17.3462 23.7652 17.8826 23.877 18.3959L25.0944 23.9862C25.1411 24.2004 25.344 24.3545 25.5797 24.3545C25.9482 24.3545 26.2681 24.5861 26.3575 24.9178L26.3632 24.9389H24.9444L21.6268 18.613C21.5424 18.4519 21.5091 18.2727 21.5307 18.0947L22.0216 14.0537C22.0523 13.8017 21.8568 13.5744 21.5852 13.546C21.3132 13.5177 21.0686 13.6989 21.0379 13.9509L20.6113 17.4627C18.9957 17.1791 16.7753 17.6181 15.5142 17.9299C15.6164 17.314 15.4494 16.671 15.0171 16.1532L14.2939 15.2866C14.1265 15.0861 13.8157 15.0493 13.5994 15.2046C13.3833 15.3598 13.3437 15.6483 13.5111 15.8488L14.2343 16.7154C14.6388 17.2 14.6602 17.8656 14.2876 18.3718L11.8227 21.7199C11.4139 22.2753 11.4012 23.0006 11.7904 23.568L12.2699 24.267C12.3467 24.3789 12.472 24.4546 12.6134 24.4745L13.7043 24.6278C13.928 24.6592 14.1147 24.7761 14.2299 24.9388H12.015L10.0598 23.1251C9.90019 22.977 9.81288 22.7718 9.8202 22.5621C9.83175 22.2311 9.8499 21.8465 9.87412 21.4188C9.98381 19.9488 8.43524 18.0436 7.5017 17.0381C7.33716 16.8608 7.24925 16.6353 7.2542 16.4029L7.31004 13.7609C7.31103 13.7152 7.22853 13.4227 7.22853 13.4227C6.83987 12.1608 5.94256 11.1006 4.7018 10.4376C1.90877 8.94496 1.42137 7.14119 1.50433 5.89079C1.67857 3.26395 2.67487 1.80406 3.25328 1.16766C3.36462 1.04521 3.55799 1.02801 3.69342 1.1286C3.78951 1.19992 3.80918 1.29249 3.81228 1.34134C3.81538 1.38977 3.80792 1.48307 3.72265 1.56358C2.99212 2.25336 2.11204 3.5141 2.06782 5.60317C2.01509 8.09759 4.6659 9.62342 6.25071 10.3109C7.10003 10.6793 7.81096 11.3014 8.25262 12.0625C8.25262 12.0625 8.27572 12.1022 8.28021 12.1091C8.35307 12.2218 8.47497 12.3004 8.61422 12.3245C8.75559 12.3491 8.90191 12.3152 9.01437 12.2319C9.52962 11.8504 13.3746 10.9899 22.5154 9.82068C23.1697 9.73699 23.7427 9.4018 24.1068 8.90456C24.1985 9.04169 24.3034 9.16867 24.4228 9.28321C24.9242 9.76405 25.6428 10.0167 26.5051 10.0167C26.5372 10.0167 27.8031 10.0157 27.8031 10.0157C27.8059 10.0157 27.8087 10.0157 27.8116 10.0156C28.2771 10.0256 28.7022 9.96296 29.0765 9.83243C28.9355 10.6242 28.7528 11.7156 28.6387 12.6474C28.5387 13.4646 28.2425 14.2636 27.7821 14.958ZM29.6354 6.2558C29.595 6.35761 29.5942 6.47081 29.6361 6.57482C29.7018 6.73816 29.7408 6.91497 29.7522 7.10023C29.7938 7.77416 29.6302 8.30826 29.2793 8.64479C28.9562 8.95476 28.4553 9.11112 27.8313 9.09753C27.8265 9.09741 27.8218 9.09741 27.8171 9.09741C27.8124 9.09741 26.5906 9.09636 26.5675 9.09783C25.9505 9.10824 25.4551 8.95243 25.1344 8.64485C24.7835 8.30832 24.6199 7.77422 24.6614 7.10035C24.6728 6.91516 24.712 6.73835 24.7776 6.57488C24.819 6.47179 24.8187 6.35969 24.7793 6.25861C24.7789 6.25765 24.7786 6.25661 24.7782 6.25549C24.731 6.12562 24.3252 5.00775 24.0238 4.16024C24.9904 4.55169 25.6313 5.24974 25.6378 5.25684C25.7771 5.41192 26.0093 5.46438 26.21 5.38614C26.8436 5.13887 27.5702 5.13887 28.2037 5.38614C28.4034 5.46408 28.6356 5.41161 28.7751 5.2577C28.7823 5.24986 29.4233 4.55169 30.3899 4.16024C30.0882 5.00847 29.6819 6.12784 29.6354 6.2558Z" fill="#FFFDFB"/>
<path d="M24.7782 6.25549L24.7793 6.25861C25.07 5.49996 25.07 5.49996 25.6378 5.25684C25.6313 5.24974 24.9904 4.55169 24.0238 4.16024C24.3252 5.00775 24.731 6.12562 24.7782 6.25549Z" fill="#FFFDFB"/>
<path d="M30.3899 4.16024C29.4233 4.55169 28.7823 5.24986 28.7751 5.2577C29.5955 5.49721 29.6048 5.67447 29.6343 6.23629L29.6354 6.2558C29.6819 6.12784 30.0882 5.00847 30.3899 4.16024Z" fill="#FFFDFB"/>
<path d="M3.25328 1.16766C2.67487 1.80406 1.67857 3.26395 1.50433 5.89079L2.06782 5.60317C2.11204 3.5141 2.99212 2.25336 3.72265 1.56358C3.80792 1.48307 3.81538 1.38977 3.81228 1.34134C3.80918 1.29249 3.78951 1.19992 3.69342 1.1286C3.55799 1.02801 3.36462 1.04521 3.25328 1.16766Z" fill="#FFFDFB"/>
</svg>
